<svg width="14" height="14" viewBox="0 0 14 14" fill="none" xmlns="http://www.w3.org/2000/svg">
<path fill-rule="evenodd" clip-rule="evenodd" d="M12.2389 2.70043C10.9923 1.0937 8.49001 1.36316 7.61407 3.19846C7.34435 3.76359 6.53993 3.76359 6.27021 3.19846C5.39428 1.36316 2.89202 1.0937 1.64542 2.70044L1.42379 2.98609C0.358383 4.35928 0.512214 6.31753 1.77898 7.50752L6.7599 12.1866C6.8509 12.2721 6.90051 12.3181 6.93889 12.3477C6.94002 12.3485 6.9411 12.3494 6.94214 12.3502C6.94318 12.3494 6.94426 12.3485 6.94539 12.3477C6.98377 12.3181 7.03339 12.2721 7.12438 12.1866L12.1053 7.50752C13.3721 6.31753 13.5259 4.35928 12.4605 2.98608L12.2389 2.70043ZM6.96752 2.88988C8.07312 0.573384 11.2314 0.233273 12.8049 2.26127L13.0265 2.54692C14.3184 4.21208 14.1319 6.58668 12.5958 8.02967L7.60494 12.7181C7.5278 12.7906 7.45224 12.8616 7.38254 12.9153C7.30505 12.9749 7.20702 13.0359 7.0801 13.0608C6.989 13.0787 6.89529 13.0787 6.80418 13.0608C6.67726 13.0359 6.57923 12.9749 6.50174 12.9153C6.43205 12.8616 6.3565 12.7906 6.27937 12.7181L1.28847 8.02967C-0.247625 6.58668 -0.434162 4.21208 0.857766 2.54693L1.07939 2.26128C2.65284 0.233276 5.81116 0.573384 6.91676 2.88988C6.92103 2.89883 6.92465 2.90109 6.9263 2.90208C6.9293 2.90388 6.93476 2.90589 6.94214 2.90589C6.94952 2.90589 6.95498 2.90388 6.95798 2.90208C6.95963 2.90109 6.96325 2.89883 6.96752 2.88988Z" fill="black"/>
</svg>
