<svg width="20" height="20" viewBox="0 0 20 20" fill="none" xmlns="http://www.w3.org/2000/svg">
<path fill-rule="evenodd" clip-rule="evenodd" d="M9.93957 8.75009C12.0106 8.75009 13.6896 7.07114 13.6896 5.00005C13.6896 2.92896 12.0106 1.25001 9.93957 1.25001C7.8685 1.25001 6.18957 2.92896 6.18957 5.00005C6.18957 7.07114 7.8685 8.75009 9.93957 8.75009ZM9.93957 10.0001C12.701 10.0001 14.9396 7.7615 14.9396 5.00005C14.9396 2.2386 12.701 0 9.93957 0C7.17815 0 4.93958 2.2386 4.93958 5.00005C4.93958 7.7615 7.17815 10.0001 9.93957 10.0001Z" fill="black"/>
<path fill-rule="evenodd" clip-rule="evenodd" d="M0.398008 16.0206C1.30471 12.6974 4.69955 11.2501 7.87079 11.2501H12.0083C15.1795 11.2501 18.5744 12.6974 19.4811 16.0206C19.6529 16.6504 19.7906 17.3334 19.8687 18.0604C19.9869 19.1606 19.0804 20.0002 18.0645 20.0002H1.81455C0.798732 20.0002 -0.107813 19.1606 0.0104125 18.0604C0.0885195 17.3334 0.226172 16.6504 0.398008 16.0206ZM7.87079 12.5001C4.96637 12.5001 2.29647 13.8113 1.60393 16.3496C1.44783 16.9217 1.32359 17.5393 1.25326 18.1939C1.22397 18.4664 1.44966 18.7502 1.81455 18.7502H18.0645C18.4294 18.7502 18.6551 18.4664 18.6258 18.1939C18.5555 17.5393 18.4313 16.9217 18.2752 16.3496C17.5826 13.8113 14.9127 12.5001 12.0083 12.5001H7.87079Z" fill="black"/>
</svg>
