<svg width="20" height="20" viewBox="0 0 20 20" fill="none" xmlns="http://www.w3.org/2000/svg">
<path fill-rule="evenodd" clip-rule="evenodd" d="M8.12499 1.25001C4.32804 1.25001 1.25 4.32808 1.25 8.12508C1.25 11.9221 4.32804 15.0001 8.12499 15.0001C11.9219 15.0001 15 11.9221 15 8.12508C15 4.32808 11.9219 1.25001 8.12499 1.25001ZM0 8.12508C0 3.63772 3.63768 0 8.12499 0C12.6123 0 16.25 3.63772 16.25 8.12508C16.25 12.6124 12.6123 16.2502 8.12499 16.2502C3.63768 16.2502 0 12.6124 0 8.12508Z" fill="black"/>
<path fill-rule="evenodd" clip-rule="evenodd" d="M13.3081 13.3082C13.5521 13.0641 13.9479 13.0641 14.1919 13.3082L19.8169 18.9332C20.061 19.1773 20.061 19.573 19.8169 19.8171C19.5729 20.0612 19.1771 20.0612 18.9331 19.8171L13.3081 14.1921C13.064 13.948 13.064 13.5523 13.3081 13.3082Z" fill="black"/>
</svg>
