<svg width="20" height="20" viewBox="0 0 20 20" fill="none" xmlns="http://www.w3.org/2000/svg">
<path d="M2.17951 18.5018C2.01209 18.5019 1.84843 18.4522 1.70922 18.3593C1.57001 18.2663 1.46151 18.1341 1.39744 17.9794C1.33337 17.8247 1.31661 17.6545 1.34928 17.4903C1.38195 17.3261 1.46258 17.1753 1.58097 17.0569L17.2213 1.41626C17.3801 1.25752 17.5954 1.16833 17.8199 1.16833C18.0444 1.16833 18.2597 1.25752 18.4184 1.41626C18.5771 1.575 18.6663 1.79031 18.6663 2.0148C18.6663 2.2393 18.5771 2.4546 18.4184 2.61335L2.77804 18.254C2.69951 18.3327 2.60621 18.3951 2.50349 18.4376C2.40078 18.4802 2.29068 18.502 2.17951 18.5018Z" fill="#333333"/>
<path d="M17.8198 18.5018C17.7087 18.502 17.5985 18.4802 17.4958 18.4376C17.3931 18.3951 17.2998 18.3327 17.2213 18.254L1.58093 2.61335C1.42219 2.4546 1.33301 2.2393 1.33301 2.0148C1.33301 1.79031 1.42219 1.575 1.58093 1.41626C1.73967 1.25752 1.95497 1.16833 2.17946 1.16833C2.40395 1.16833 2.61925 1.25752 2.77799 1.41626L18.4184 17.0569C18.5367 17.1753 18.6174 17.3261 18.65 17.4903C18.6827 17.6545 18.666 17.8247 18.6019 17.9794C18.5378 18.1341 18.4293 18.2663 18.2901 18.3593C18.1509 18.4522 17.9872 18.5019 17.8198 18.5018Z" fill="#333333"/>
</svg>
