<svg width="20" height="20" viewBox="0 0 20 20" fill="none" xmlns="http://www.w3.org/2000/svg">
<path fill-rule="evenodd" clip-rule="evenodd" d="M5.73627 10.2601C5.44192 10.2601 5.20331 10.0215 5.20331 9.72717L5.20331 5.46347C5.20331 2.81435 7.35084 0.666812 9.99997 0.666812C12.6491 0.666812 14.7966 2.81435 14.7966 5.46347L14.7966 9.72717C14.7966 10.0215 14.558 10.2601 14.2637 10.2601C13.9693 10.2601 13.7307 10.0215 13.7307 9.72717L13.7307 5.46347C13.7307 3.40304 12.0604 1.73274 9.99997 1.73274C7.93954 1.73274 6.26923 3.40304 6.26923 5.46347L6.26923 9.72717C6.26923 10.0215 6.03062 10.2601 5.73627 10.2601Z" fill="black"/>
<path fill-rule="evenodd" clip-rule="evenodd" d="M5.35868 5.99646H14.6413C15.5408 5.99645 16.2678 5.99644 16.8442 6.07128C17.4436 6.14912 17.9518 6.31534 18.3702 6.70028C18.7885 7.08523 18.9964 7.57784 19.1237 8.16875C19.2462 8.73693 19.3065 9.4614 19.3812 10.3578L19.9351 17.0041C19.9775 17.5129 20.0139 17.9489 19.9948 18.2991C19.9744 18.673 19.888 19.0367 19.6115 19.3372C19.3349 19.6378 18.9797 19.754 18.6087 19.8054C18.2614 19.8535 17.8238 19.8535 17.3133 19.8535H2.68671C2.17618 19.8535 1.73862 19.8535 1.39125 19.8054C1.02032 19.754 0.665071 19.6378 0.388535 19.3372C0.111999 19.0367 0.0256153 18.673 0.00522004 18.2991C-0.0138801 17.9489 0.0224809 17.5129 0.0649055 17.0041L0.618763 10.3578C0.693451 9.46139 0.753811 8.73693 0.876265 8.16875C1.00362 7.57784 1.21147 7.08523 1.62982 6.70028C2.04818 6.31534 2.55635 6.14912 3.15579 6.07128C3.73218 5.99644 4.45915 5.99645 5.35868 5.99646ZM3.29305 7.12833C2.80846 7.19126 2.54514 7.30656 2.35157 7.48468C2.15799 7.6628 2.02122 7.91563 1.91826 8.39332C1.81209 8.88595 1.75644 9.54113 1.67793 10.4833L1.13021 17.0559C1.08389 17.6117 1.05496 17.9734 1.06956 18.241C1.08332 18.4933 1.13278 18.5718 1.17293 18.6155C1.21308 18.6591 1.2872 18.7149 1.53749 18.7496C1.80301 18.7863 2.16582 18.7876 2.72357 18.7876H17.2764C17.8342 18.7876 18.197 18.7863 18.4625 18.7496C18.7128 18.7149 18.7869 18.6591 18.8271 18.6155C18.8672 18.5718 18.9167 18.4933 18.9304 18.241C18.945 17.9734 18.9161 17.6117 18.8698 17.0559L18.3221 10.4833C18.2436 9.54113 18.1879 8.88595 18.0817 8.39332C17.9788 7.91563 17.842 7.6628 17.6484 7.48468C17.4549 7.30656 17.1915 7.19126 16.7069 7.12833C16.2072 7.06344 15.5497 7.06238 14.6042 7.06238H5.39577C4.45034 7.06238 3.7928 7.06344 3.29305 7.12833Z" fill="black"/>
</svg>
