<svg width="20" height="20" viewBox="0 0 20 20" fill="none" xmlns="http://www.w3.org/2000/svg">
<g clip-path="url(#clip0_5918_3159)">
<path fill-rule="evenodd" clip-rule="evenodd" d="M3.60232 1.32859C3.41164 1.13791 3.10249 1.13791 2.91181 1.32859C0.837931 3.40249 0.604599 6.68576 2.36434 9.03211L3.76516 10.8999C5.28177 12.922 7.07808 14.7184 9.10022 16.235L10.968 17.6358C13.3143 19.3956 16.5975 19.1623 18.6714 17.0884C18.8621 16.8977 18.8621 16.5885 18.6714 16.3978L15.5319 13.2583C15.3004 13.0268 14.9251 13.0268 14.6936 13.2583L13.4829 14.4689C13.1101 14.8418 12.5406 14.9342 12.069 14.6984C9.14053 13.2341 6.76598 10.8596 5.30176 7.9311C5.06597 7.45951 5.15839 6.88995 5.53121 6.51713L6.74185 5.30648C6.97334 5.07498 6.97334 4.69965 6.74185 4.46815L3.60232 1.32859ZM2.07349 0.490259C2.72716 -0.163419 3.78697 -0.163421 4.44064 0.490258L7.58017 3.62982C8.27466 4.32431 8.27466 5.45031 7.58017 6.14481L6.36953 7.35546C6.35755 7.36744 6.35458 7.38574 6.36216 7.40089C7.71167 10.0999 9.90017 12.2885 12.5992 13.638C12.6143 13.6455 12.6326 13.6426 12.6446 13.6306L13.8552 12.42C14.5497 11.7255 15.6757 11.7255 16.3702 12.4199L19.5097 15.5595C20.1634 16.2132 20.1634 17.273 19.5097 17.9267C17.0187 20.4178 13.075 20.6981 10.2566 18.5843L8.38888 17.1835C6.27687 15.5994 4.40072 13.7233 2.81671 11.6112L1.41589 9.74346C-0.697853 6.9251 -0.417583 2.98135 2.07349 0.490259Z" fill="#E8522A"/>
</g>
<defs>
<clipPath id="clip0_5918_3159">
<rect width="20" height="20" fill="white"/>
</clipPath>
</defs>
</svg>
