<svg width="20" height="18" viewBox="0 0 20 18" fill="none" xmlns="http://www.w3.org/2000/svg">
<path fill-rule="evenodd" clip-rule="evenodd" d="M17.4841 2.85773C15.7032 0.562394 12.1286 0.947338 10.8772 3.5692C10.4919 4.37652 9.34276 4.37652 8.95745 3.5692C7.70611 0.947339 4.13145 0.562397 2.3506 2.85773L2.03399 3.2658C0.511976 5.22751 0.731734 8.025 2.54139 9.72499L9.65701 16.4094C9.78699 16.5315 9.85787 16.5973 9.9127 16.6395C9.91431 16.6407 9.91586 16.6419 9.91734 16.643C9.91883 16.6419 9.92038 16.6407 9.92198 16.6395C9.97682 16.5973 10.0477 16.5315 10.1777 16.4094L17.2933 9.72499C19.103 8.02501 19.3227 5.22751 17.8007 3.2658L17.4841 2.85773ZM9.9536 3.12837C11.533 -0.180915 16.0449 -0.666788 18.2927 2.23036L18.6093 2.63843C20.4549 5.01722 20.1884 8.4095 17.994 10.4709L10.8642 17.1687C10.754 17.2722 10.6461 17.3736 10.5465 17.4503C10.4358 17.5356 10.2957 17.6226 10.1144 17.6582C9.98428 17.6838 9.85041 17.6838 9.72026 17.6582C9.53894 17.6226 9.3989 17.5356 9.2882 17.4503C9.18864 17.3736 9.08071 17.2722 8.97053 17.1687L1.84067 10.4709C-0.35375 8.4095 -0.620232 5.01722 1.22538 2.63843L1.54199 2.23036C3.78977 -0.666783 8.30166 -0.180915 9.88109 3.12837C9.88719 3.14116 9.89236 3.14438 9.89472 3.14579C9.899 3.14837 9.9068 3.15124 9.91734 3.15124C9.92789 3.15124 9.93569 3.14837 9.93997 3.14579C9.94233 3.14438 9.9475 3.14116 9.9536 3.12837Z" fill="black"/>
</svg>
