<svg width="20" height="20" viewBox="0 0 20 20" fill="none" xmlns="http://www.w3.org/2000/svg">
<path fill-rule="evenodd" clip-rule="evenodd" d="M5.25113 2.50122H14.7491C15.8217 2.5012 16.6863 2.50119 17.3662 2.59261C18.0722 2.68753 18.6666 2.89058 19.1387 3.36268C19.6108 3.83478 19.8139 4.42919 19.9088 5.13517C20.0002 5.81514 20.0002 6.67971 20.0002 7.75233V12.5444C20.0002 13.617 20.0002 14.4816 19.9088 15.1615C19.8139 15.8675 19.6108 16.4619 19.1387 16.934C18.6666 17.4061 18.0722 17.6092 17.3662 17.7041C16.6863 17.7955 15.8217 17.7955 14.749 17.7955H5.25115C4.17851 17.7955 3.31393 17.7955 2.63395 17.7041C1.92797 17.6092 1.33356 17.4061 0.86146 16.934C0.389364 16.4619 0.186308 15.8675 0.0913922 15.1615C-2.88121e-05 14.4816 -1.5769e-05 13.617 4.29548e-07 12.5444V7.75235C-1.5769e-05 6.67972 -2.88121e-05 5.81515 0.0913922 5.13517C0.186308 4.42919 0.389364 3.83478 0.86146 3.36268C1.33356 2.89058 1.92797 2.68753 2.63395 2.59261C3.31393 2.50119 4.1785 2.5012 5.25113 2.50122ZM2.79071 3.7586C2.21519 3.83598 1.91043 3.97751 1.69336 4.19458C1.47629 4.41165 1.33476 4.71642 1.25738 5.29193C1.17773 5.88437 1.17648 6.66956 1.17648 7.79539V12.5013C1.17648 13.6271 1.17773 14.4123 1.25738 15.0048C1.33476 15.5803 1.47629 15.8851 1.69336 16.1021C1.91043 16.3192 2.21519 16.4607 2.79071 16.5381C3.38315 16.6178 4.16834 16.619 5.29417 16.619H14.706C15.8319 16.619 16.617 16.6178 17.2095 16.5381C17.785 16.4607 18.0898 16.3192 18.3068 16.1021C18.5239 15.8851 18.6654 15.5803 18.7428 15.0048C18.8225 14.4123 18.8237 13.6271 18.8237 12.5013V7.79539C18.8237 6.66956 18.8225 5.88437 18.7428 5.29193C18.6654 4.71642 18.5239 4.41165 18.3068 4.19458C18.0898 3.97751 17.785 3.83598 17.2095 3.7586C16.617 3.67895 15.8319 3.6777 14.706 3.6777H5.29417C4.16834 3.6777 3.38315 3.67895 2.79071 3.7586Z" fill="#E8522A"/>
<path fill-rule="evenodd" clip-rule="evenodd" d="M8.68477 11.3248L0.325195 7.14505L0.851334 6.09277L9.21091 10.2726C9.70773 10.521 10.2925 10.521 10.7893 10.2726L19.1489 6.09277L19.675 7.14505L11.3155 11.3248C10.4874 11.7389 9.5128 11.7389 8.68477 11.3248Z" fill="#E8522A"/>
</svg>
