<svg width="605" height="46" viewBox="0 0 605 46" fill="none" xmlns="http://www.w3.org/2000/svg">
<path d="M604.441 45.6027C598.718 45.4157 592.913 45.7835 587.284 44.9348C548.58 39.1134 509.999 32.1568 471.167 27.3184C432.034 22.4476 392.703 18.6171 353.33 16.1691C318.888 14.0173 284.29 13.4957 249.779 13.9804C220.347 14.3873 190.937 17.3972 161.506 18.9962C118.032 21.3917 75.172 28.3183 32.4599 36.2795C26.5097 37.3899 20.7017 39.1877 14.7515 40.2981C9.33163 41.3143 5.06121 39.7243 2.37941 34.2755C-0.725906 27.9356 0.472273 24.8796 7.34588 23.8477C48.2025 17.8092 89.01 11.2235 129.988 6.06506C150.553 3.48326 171.46 3.34424 192.232 2.45363C208.802 1.73603 225.473 0.487531 241.97 1.45236C252.326 2.07666 262.262 0.184751 272.339 0.193546C294.981 0.242558 317.605 1.65497 340.24 2.37499C353.328 2.7969 366.428 2.70006 379.488 3.37902C391.17 3.97361 402.874 4.96073 414.477 6.47874C420.844 7.3207 426.99 9.80741 433.329 11.1015C436.022 11.6535 439.406 12.0204 441.676 10.8793C451.323 6.05199 458.825 15.6209 469.258 13.7395C481.66 11.4864 495.434 16.5773 508.583 18.6313C515.486 19.7265 522.429 20.8477 529.205 22.5142C538.179 24.7007 546.969 27.5824 555.914 29.8308C558.7 30.5229 561.976 29.491 564.681 30.3261C569.441 31.7957 573.827 34.5251 578.613 35.9543C587.243 38.5153 596.021 40.5072 604.752 42.7324C604.65 43.6749 604.526 44.6151 604.402 45.5553L604.441 45.6027Z" fill="#E8522A"/>
</svg>
