<svg width="163" height="20" viewBox="0 0 163 20" fill="none" xmlns="http://www.w3.org/2000/svg">
<path d="M0.604 19V0.827999H12.056V3.684H3.908V8.472H11.356V11.3H3.908V19H0.604ZM20.5238 19L26.7118 0.827999H30.8558L36.7918 19H33.3198L32.0598 15.08H25.3118L24.0238 19H20.5238ZM26.1518 12.588H31.2758L28.7278 4.776L26.1518 12.588ZM54.7672 19.392C53.5072 19.392 52.3452 19.1727 51.2812 18.734C50.2265 18.2953 49.3678 17.628 48.7052 16.732C48.0518 15.836 47.7018 14.6973 47.6552 13.316H50.9032C50.9032 14.016 51.0758 14.59 51.4212 15.038C51.7665 15.486 52.2285 15.822 52.8072 16.046C53.3952 16.2607 54.0392 16.368 54.7392 16.368C55.4112 16.368 56.0085 16.2793 56.5312 16.102C57.0632 15.9247 57.4785 15.6727 57.7772 15.346C58.0852 15.01 58.2392 14.6133 58.2392 14.156C58.2392 13.5493 58.0525 13.0733 57.6792 12.728C57.3152 12.3827 56.7272 12.0653 55.9152 11.776L52.3312 10.348C50.9312 9.79733 49.8578 9.158 49.1112 8.43C48.3645 7.702 47.9912 6.69867 47.9912 5.42C47.9912 3.94533 48.5745 2.75067 49.7412 1.836C50.9078 0.921332 52.5365 0.463998 54.6272 0.463998C56.6618 0.463998 58.2345 0.939999 59.3452 1.892C60.4558 2.83467 61.0858 4.15067 61.2352 5.84H57.9872C57.8658 5.12133 57.5392 4.54733 57.0072 4.118C56.4752 3.67933 55.6818 3.46 54.6272 3.46C53.6938 3.46 52.9565 3.656 52.4152 4.048C51.8738 4.43067 51.6032 4.916 51.6032 5.504C51.6032 6.008 51.7712 6.40933 52.1072 6.708C52.4525 6.99733 52.9845 7.27733 53.7032 7.548L57.6792 9.088C59.0232 9.61067 60.0545 10.2687 60.7732 11.062C61.4918 11.8553 61.8512 12.8493 61.8512 14.044C61.8512 15.136 61.5758 16.0833 61.0252 16.886C60.4745 17.6793 59.6718 18.2953 58.6172 18.734C57.5625 19.1727 56.2792 19.392 54.7672 19.392ZM74.6946 0.827999H77.9986V8.416H85.9226V0.827999H89.2266V19H85.9226V11.3H77.9986V19H74.6946V0.827999ZM102.837 19V0.827999H106.141V19H102.837ZM126.712 19.392C125.097 19.392 123.669 19.0373 122.428 18.328C121.196 17.6187 120.23 16.5593 119.53 15.15C118.83 13.7407 118.48 11.9907 118.48 9.9C118.48 7.772 118.83 6.01267 119.53 4.622C120.23 3.222 121.196 2.18133 122.428 1.5C123.669 0.809332 125.097 0.463998 126.712 0.463998C128.336 0.463998 129.769 0.818665 131.01 1.528C132.251 2.228 133.222 3.278 133.922 4.678C134.622 6.078 134.972 7.81867 134.972 9.9C134.972 12.0187 134.622 13.7827 133.922 15.192C133.222 16.6013 132.251 17.656 131.01 18.356C129.769 19.0467 128.336 19.392 126.712 19.392ZM126.712 16.396C128.196 16.396 129.372 15.836 130.24 14.716C131.117 13.596 131.556 11.9813 131.556 9.872C131.556 7.83733 131.117 6.25533 130.24 5.126C129.372 3.99667 128.196 3.432 126.712 3.432C125.256 3.432 124.089 4.00133 123.212 5.14C122.335 6.26933 121.896 7.856 121.896 9.9C121.896 12 122.335 13.61 123.212 14.73C124.089 15.8407 125.256 16.396 126.712 16.396ZM147.225 0.827999H150.837L159.097 13.792H158.845V0.827999H162.149V19H158.789L149.997 5.252H150.529V19H147.225V0.827999Z" fill="black"/>
</svg>
