<svg width="95" height="95" viewBox="0 0 95 95" fill="none" xmlns="http://www.w3.org/2000/svg">
<g clip-path="url(#clip0_5319_2292)">
<path fill-rule="evenodd" clip-rule="evenodd" d="M94.6222 47.4513C94.6222 73.4454 73.5491 94.5206 47.5571 94.5206C21.563 94.5206 0.491943 73.4454 0.491943 47.4513C0.491943 21.4551 21.563 0.381958 47.5571 0.381958C73.5491 0.381958 94.6222 21.4551 94.6222 47.4513Z" fill="white"/>
<path fill-rule="evenodd" clip-rule="evenodd" d="M81.0393 80.9359C72.0966 89.8785 60.2068 94.8016 47.557 94.8016C34.9051 94.8016 23.0154 89.8785 14.0727 80.9359C5.12579 71.9911 0.200562 60.0992 0.200562 47.4515C0.200562 34.8018 5.12579 22.9099 14.0727 13.9651C23.0154 5.02032 34.9051 0.0950928 47.557 0.0950928C60.2068 0.0950928 72.0966 5.02032 81.0393 13.9651C89.9862 22.9099 94.9114 34.8018 94.9114 47.4515C94.9114 60.0992 89.9862 71.9911 81.0393 80.9359ZM79.7494 15.255C71.1487 6.66065 59.717 1.92331 47.557 1.92331C35.3928 1.92331 23.9632 6.66065 15.3626 15.255C6.76401 23.8556 2.02878 35.2894 2.02878 47.4515C2.02878 59.6115 6.76401 71.0432 15.3626 79.646C23.9632 88.2424 35.3928 92.9798 47.557 92.9798C59.717 92.9798 71.1487 88.2424 79.7494 79.646C88.3479 71.0432 93.0811 59.6115 93.0811 47.4515C93.0811 35.2894 88.3479 23.8556 79.7494 15.255ZM88.3733 60.2216H6.73656C5.26512 57.6968 4.46501 51.6273 4.46501 46.7844C4.46501 22.9901 23.7585 4.09987 47.557 4.09987C71.3514 4.09987 90.6448 23.121 90.6448 46.9195C90.6448 51.7582 89.8447 57.6968 88.3733 60.2216ZM66.5148 53.6287C66.5148 54.072 66.8758 54.433 67.3192 54.433C67.7625 54.433 68.1235 54.072 68.1235 53.6287V50.9665L68.9152 50.1348L71.7694 54.0868C71.8813 54.2388 72.0882 54.433 72.4217 54.433C72.8524 54.433 73.2113 54.072 73.2113 53.6434C73.2113 53.4767 73.1564 53.3099 73.0593 53.1853L69.996 49.0117L72.6033 46.1828C72.7257 46.0455 72.8102 45.8788 72.8102 45.6571C72.8104 45.555 72.7905 45.4538 72.7516 45.3595C72.7126 45.2651 72.6554 45.1793 72.5832 45.1071C72.511 45.0349 72.4253 44.9777 72.3309 44.9388C72.2365 44.8998 72.1354 44.8799 72.0333 44.8802C71.8243 44.8802 71.6174 44.9625 71.4506 45.1441L68.1235 48.8596V45.6845C68.1235 45.2412 67.7625 44.8802 67.3192 44.8802C66.8758 44.8802 66.5148 45.2412 66.5148 45.6845V53.6287ZM63.2553 53.6287C63.2553 54.072 63.6163 54.433 64.0596 54.433C64.5029 54.433 64.8639 54.072 64.8639 53.6287V45.6845C64.8639 45.2412 64.5029 44.8802 64.0596 44.8802C63.6163 44.8802 63.2553 45.2412 63.2553 45.6845V53.6287ZM63.3123 44.3123C63.4917 44.4791 63.7134 44.5192 63.9477 44.3123L65.3073 43.0647C65.5289 42.8557 65.5564 42.5242 65.2524 42.2329C64.9758 41.9563 64.6148 41.9415 64.4206 42.1907L63.2426 43.6874C63.0885 43.8542 63.0885 44.1033 63.3123 44.3123ZM54.5174 53.6434C54.5174 54.072 54.8784 54.433 55.309 54.433C55.7376 54.433 56.0986 54.072 56.0986 53.6434V48.1799L60.1878 54.0868C60.3271 54.2937 60.5784 54.433 60.8401 54.433C61.2708 54.433 61.6297 54.072 61.6297 53.6434V45.6698C61.6297 45.2412 61.2708 44.8802 60.8401 44.8802C60.4116 44.8802 60.0506 45.2412 60.0506 45.6698V51.1608L55.9466 45.2138C55.8073 45.0048 55.5856 44.8802 55.309 44.8802C54.8784 44.8802 54.5174 45.2412 54.5174 45.6698V53.6434ZM47.234 54.3211H52.9045C53.3056 54.3211 53.6244 54.0023 53.6244 53.6012C53.6244 53.198 53.3056 52.8792 52.9045 52.8792H48.6759L53.3204 46.1004C53.4175 45.9611 53.4449 45.8218 53.4449 45.6972C53.4449 45.3109 53.1261 44.99 52.7377 44.99H47.4958C47.1095 44.99 46.7907 45.3109 46.7907 45.6972C46.7907 46.0857 47.1095 46.4065 47.4958 46.4065H51.3106L46.6514 53.1705C46.5669 53.2824 46.512 53.4492 46.512 53.6012C46.512 54.0023 46.8329 54.3211 47.234 54.3211ZM49.077 40.8839C49.2354 41.0908 49.5204 41.2174 49.7906 41.2174C50.2973 41.2174 50.7089 40.8036 50.7089 40.297C50.7089 40.1239 50.6604 39.9339 50.5189 39.7439L48.1756 36.8918C49.6956 36.7018 50.6139 35.2451 50.6139 33.7399C50.6139 31.9518 49.4106 30.4296 47.272 30.4296H44.2468C43.7401 30.4296 43.3285 30.8413 43.3285 31.348V40.297C43.3285 40.8036 43.7401 41.2174 44.2468 41.2174C44.7535 41.2174 45.1651 40.8036 45.1651 40.297V37.0037H46.1954L49.077 40.8839ZM48.9039 28.1496C48.9039 27.8013 48.6337 27.5311 48.2854 27.5311C48.1418 27.5311 48.0004 27.5796 47.9201 27.643L46.7801 28.4347L45.6401 27.643C45.562 27.5796 45.4185 27.5311 45.277 27.5311C44.9287 27.5311 44.6585 27.8013 44.6585 28.1496C44.6585 28.403 44.7851 28.5613 44.9435 28.6711L46.417 29.6549C46.5268 29.733 46.6535 29.7647 46.7801 29.7647C46.9068 29.7647 47.0335 29.733 47.1454 29.6549L48.6189 28.6711C48.7773 28.5613 48.9039 28.403 48.9039 28.1496ZM38.5109 54.433C38.8698 54.433 39.1337 54.1965 39.2583 53.9052L40.1048 51.8954H43.4594L44.3059 53.9052C44.4284 54.1965 44.6923 54.433 45.0533 54.433C45.4839 54.433 45.8449 54.072 45.8449 53.6434C45.8449 53.559 45.8301 53.4492 45.7879 53.3521L42.5178 45.3784C42.4334 45.1842 42.2117 44.8802 41.781 44.8802C41.3525 44.8802 41.1308 45.1842 41.0464 45.3784L37.7741 53.3521C37.734 53.4492 37.7192 53.559 37.7192 53.6434C37.7192 54.072 38.0802 54.433 38.5109 54.433ZM30.3747 53.6287C30.3747 54.072 30.7357 54.433 31.179 54.433C31.6224 54.433 31.9834 54.072 31.9834 53.6287V50.9665L32.7729 50.1348L35.6292 54.0868C35.7411 54.2388 35.948 54.433 36.2816 54.433C36.7101 54.433 37.0711 54.072 37.0711 53.6434C37.0711 53.4767 37.0162 53.3099 36.9191 53.1853L33.8538 49.0117L36.461 46.1828C36.5856 46.0455 36.67 45.8788 36.67 45.6571C36.6703 45.555 36.6504 45.4538 36.6115 45.3595C36.5725 45.2651 36.5153 45.1793 36.4431 45.1071C36.3709 45.0349 36.2852 44.9777 36.1908 44.9388C36.0964 44.8998 35.9952 44.8799 35.8931 44.8802C35.6841 44.8802 35.4772 44.9625 35.3105 45.1441L31.9834 48.8596V45.6845C31.9834 45.2412 31.6224 44.8802 31.179 44.8802C30.7357 44.8802 30.3747 45.2412 30.3747 45.6845V53.6287ZM22.0675 54.433C22.4264 54.433 22.6902 54.1965 22.8148 53.9052L23.6592 51.8954H27.0159L27.8604 53.9052C27.9849 54.1965 28.2488 54.433 28.6098 54.433C29.0405 54.433 29.3994 54.072 29.3994 53.6434C29.3994 53.559 29.3867 53.4492 29.3445 53.3521L26.0722 45.3784C25.9899 45.1842 25.7661 44.8802 25.3376 44.8802C24.9069 44.8802 24.6852 45.1842 24.6029 45.3784L21.3307 53.3521C21.2885 53.4492 21.2758 53.559 21.2758 53.6434C21.2758 54.072 21.6368 54.433 22.0675 54.433ZM26.2812 42.2329C26.0026 41.9563 25.6437 41.9415 25.4495 42.1907L24.2694 43.6874C24.1174 43.8542 24.1174 44.1033 24.339 44.3123C24.5206 44.4791 24.7422 44.5192 24.9766 44.3123L26.3361 43.0647C26.5578 42.8557 26.5852 42.5242 26.2812 42.2329ZM13.7919 45.6972C13.7919 46.0857 14.1107 46.4065 14.4991 46.4065H18.3118L13.6547 53.1705C13.5702 53.2824 13.5153 53.4492 13.5153 53.6012C13.5153 54.0023 13.8341 54.3211 14.2373 54.3211H19.9078C20.3089 54.3211 20.6277 54.0023 20.6277 53.6012C20.6277 53.198 20.3089 52.8792 19.9078 52.8792H15.6792L20.3216 46.1004C20.4208 45.9611 20.4482 45.8218 20.4482 45.6972C20.4482 45.3109 20.1295 44.99 19.741 44.99H14.4991C14.1107 44.99 13.7919 45.3109 13.7919 45.6972ZM14.6891 35.7686C14.6891 39.4736 16.511 41.3124 19.7115 41.3124C22.9098 41.3124 24.7317 39.4736 24.7317 35.7686C24.7317 32.013 22.9098 30.208 19.7115 30.208C16.511 30.208 14.6891 32.013 14.6891 35.7686ZM26.4248 19.6186H24.1638C24.1406 19.5405 24.1152 19.473 24.092 19.4012C23.8851 18.7721 23.6825 18.1409 23.4777 17.5096C23.4481 17.4168 23.4059 17.3408 23.3151 17.2985C23.1547 17.2246 22.9837 17.3006 22.9225 17.4759C22.7768 17.9276 22.6332 18.3773 22.4855 18.8312C22.401 19.093 22.3145 19.3548 22.23 19.6186H20.0112C19.9711 19.6186 19.9268 19.6187 19.8867 19.6292C19.7748 19.663 19.7051 19.7411 19.684 19.8551C19.6608 19.9797 19.7051 20.0789 19.8107 20.1549C20.3976 20.5855 20.9845 21.0141 21.5756 21.4384C21.622 21.4743 21.6284 21.5018 21.6115 21.5567C21.47 21.9894 21.3265 22.4264 21.1829 22.8634C21.1006 23.1168 21.0161 23.3722 20.938 23.6255C20.8768 23.805 20.9676 23.9739 21.1428 24.0098C21.2441 24.0309 21.3265 23.9908 21.4067 23.9338C21.9767 23.5158 22.5509 23.0978 23.1209 22.6798C23.18 22.6375 23.2138 22.6397 23.2687 22.6819C23.4629 22.8275 23.6592 22.9669 23.8535 23.1104C24.2419 23.387 24.6261 23.6741 25.0125 23.9506C25.2046 24.09 25.4516 23.9844 25.4706 23.7543C25.4769 23.6994 25.46 23.6403 25.4431 23.5854C25.2236 22.9099 25.0019 22.2343 24.7802 21.5588C24.7612 21.5018 24.7697 21.4743 24.8161 21.4384C25.4051 21.0141 25.9899 20.5855 26.5747 20.1591C26.619 20.1211 26.6655 20.0746 26.6908 20.0219C26.7774 19.8319 26.6338 19.6186 26.4248 19.6186ZM26.0701 30.303C25.5635 30.303 25.1497 30.7146 25.1497 31.2213C25.1497 31.3649 25.1666 31.4599 25.2151 31.5718L28.8104 40.6305C28.937 40.9472 29.1904 41.2174 29.6654 41.2174C30.1404 41.2174 30.3937 40.9472 30.5204 40.6305L34.1156 31.5718C34.1641 31.4599 34.1789 31.3649 34.1789 31.2213C34.1789 30.7146 33.7672 30.303 33.2606 30.303C32.8025 30.303 32.5154 30.6049 32.4204 30.8413L29.6654 38.1436L26.9104 30.8413C26.8132 30.588 26.5282 30.303 26.0701 30.303ZM36.5391 14.7188C35.6968 14.7166 34.8545 14.7188 34.01 14.7188H33.9024C33.8728 14.628 33.8454 14.5478 33.82 14.4654C33.5794 13.7286 33.3408 12.9961 33.1022 12.2551C33.0685 12.1495 33.0199 12.0609 32.9122 12.0081C32.7265 11.9258 32.5238 12.0144 32.4562 12.2192C32.2831 12.7428 32.1164 13.2726 31.9411 13.7962C31.844 14.1023 31.7448 14.4084 31.6477 14.7188H29.0574C29.0088 14.7188 28.956 14.7166 28.9117 14.7314C28.7766 14.7673 28.6964 14.8623 28.6731 14.9932C28.6457 15.141 28.7006 15.2571 28.8209 15.3458C29.5091 15.844 30.1931 16.3443 30.8814 16.8447C30.9341 16.8826 30.9468 16.9164 30.9236 16.9798C30.7547 17.4864 30.59 17.9973 30.4254 18.5019C30.3261 18.8016 30.229 19.0993 30.1319 19.3928C30.0665 19.6081 30.1741 19.8002 30.3747 19.8445C30.495 19.8699 30.59 19.8213 30.6829 19.7538C31.3521 19.2661 32.0171 18.7805 32.6842 18.2908C32.7539 18.2422 32.794 18.2443 32.8595 18.2908C33.0854 18.4639 33.3134 18.6264 33.5414 18.7911C33.991 19.1204 34.4407 19.4498 34.8925 19.7749C35.1184 19.9374 35.4076 19.8129 35.4287 19.5448C35.4329 19.4793 35.416 19.4118 35.397 19.3484C35.1374 18.5589 34.8798 17.7714 34.6201 16.984C34.5969 16.9164 34.6075 16.8826 34.6645 16.8425C35.3506 16.3443 36.0325 15.8461 36.7144 15.3458C36.7714 15.3056 36.822 15.2508 36.8474 15.1895C36.9508 14.9658 36.7861 14.7188 36.5391 14.7188ZM40.3223 27.5311C40.1808 27.5311 40.0373 27.5796 39.957 27.643L38.817 28.4347L37.677 27.643C37.5989 27.5796 37.4554 27.5311 37.3139 27.5311C36.9656 27.5311 36.6954 27.8013 36.6954 28.1496C36.6954 28.403 36.822 28.5613 36.9804 28.6711L38.4539 29.6549C38.5637 29.733 38.6925 29.7647 38.817 29.7647C38.9437 29.7647 39.0704 29.733 39.1823 29.6549L40.6558 28.6711C40.8141 28.5613 40.9408 28.403 40.9408 28.1496C40.9408 27.8013 40.6706 27.5311 40.3223 27.5311ZM36.2035 30.4296C35.6968 30.4296 35.2851 30.8413 35.2851 31.348V40.1703C35.2851 40.6791 35.6968 41.0908 36.2035 41.0908H41.3208C41.7789 41.0908 42.1441 40.7255 42.1441 40.2653C42.1441 39.8072 41.7789 39.442 41.3208 39.442H37.1218V36.5286H40.1175C40.5587 36.5286 40.9239 36.1634 40.9239 35.7201C40.9239 35.2768 40.5587 34.9137 40.1175 34.9137H37.1218V32.0784H41.1456C41.6058 32.0784 41.9689 31.7132 41.9689 31.253C41.9689 30.7949 41.6058 30.4296 41.1456 30.4296H36.2035ZM52.9087 10.5789H49.1594C49.1171 10.4522 49.0813 10.3361 49.0433 10.2242C48.6991 9.17287 48.3614 8.12576 48.0215 7.08076C47.9729 6.92876 47.9011 6.80209 47.7491 6.73243C47.4874 6.60998 47.1981 6.73665 47.1031 7.02587C46.8561 7.7732 46.6176 8.52476 46.3727 9.2742L45.9505 10.5789H42.2687C42.2011 10.5789 42.1273 10.5789 42.0618 10.5979C41.8739 10.6464 41.7578 10.7836 41.724 10.9694C41.686 11.1805 41.7662 11.3431 41.9372 11.4676C42.9126 12.1791 43.8858 12.8948 44.8611 13.602C44.9371 13.659 44.954 13.7033 44.9245 13.7899C44.6838 14.514 44.4495 15.2402 44.2151 15.9643C44.0737 16.3844 43.9344 16.8067 43.8035 17.2289C43.7043 17.5286 43.8584 17.8031 44.1455 17.8664C44.3123 17.9023 44.4495 17.8348 44.5825 17.7419C45.5325 17.0452 46.4825 16.3549 47.4304 15.6582C47.5254 15.5906 47.5845 15.5906 47.6753 15.6582C47.994 15.9031 48.3213 16.1353 48.6443 16.3696C49.286 16.8383 49.9236 17.307 50.5675 17.7714C50.8884 17.9994 51.2958 17.8221 51.3275 17.4421C51.338 17.3513 51.3106 17.25 51.281 17.1613C50.9158 16.0424 50.5527 14.9214 50.1811 13.8004C50.1495 13.7033 50.1643 13.659 50.2445 13.602C51.2198 12.8948 52.1909 12.1833 53.1578 11.474C53.2359 11.417 53.3098 11.3346 53.3499 11.2481C53.4914 10.9335 53.257 10.581 52.9087 10.5789ZM53.0164 30.4296C52.5097 30.4296 52.098 30.8413 52.098 31.348V40.1703C52.098 40.6791 52.5097 41.0908 53.0164 41.0908H58.1316C58.5918 41.0908 58.9549 40.7255 58.9549 40.2653C58.9549 39.8072 58.5918 39.442 58.1316 39.442H53.9347V36.5286H56.9283C57.3716 36.5286 57.7368 36.1634 57.7368 35.7201C57.7368 35.2768 57.3716 34.9137 56.9283 34.9137H53.9347V32.0784H57.9585C58.4166 32.0784 58.7818 31.7132 58.7818 31.253C58.7818 30.7949 58.4166 30.4296 57.9585 30.4296H53.0164ZM65.9237 14.7188C65.0793 14.7166 64.2369 14.7188 63.3946 14.7188H63.2869C63.2553 14.628 63.2299 14.5478 63.2025 14.4654C62.9639 13.7286 62.7233 12.9961 62.4847 12.2551C62.4509 12.1495 62.4024 12.0609 62.2947 12.0081C62.1089 11.9258 61.9063 12.0144 61.8387 12.2192C61.6635 12.7428 61.4967 13.2726 61.3257 13.7962C61.2265 14.1023 61.1273 14.4084 61.028 14.7188H58.4398C58.3913 14.7188 58.3385 14.7166 58.292 14.7314C58.1611 14.7673 58.0788 14.8623 58.0577 14.9932C58.0303 15.141 58.0851 15.2571 58.2055 15.3458C58.8895 15.844 59.5756 16.3443 60.2638 16.8447C60.3187 16.8826 60.3271 16.9164 60.306 16.9798C60.1393 17.4864 59.9725 17.9973 59.8078 18.5019C59.7107 18.8016 59.6115 19.0993 59.5165 19.3928C59.451 19.6081 59.5566 19.8002 59.7593 19.8445C59.8754 19.8699 59.9725 19.8213 60.0654 19.7538C60.7346 19.2661 61.4038 18.7805 62.0688 18.2908C62.1385 18.2422 62.1765 18.2443 62.2419 18.2908C62.4657 18.4639 62.6979 18.6264 62.9238 18.7911C63.3756 19.1204 63.8231 19.4498 64.277 19.7749C64.5008 19.9374 64.7879 19.8129 64.8111 19.5448C64.8175 19.4793 64.7985 19.4118 64.7774 19.3484C64.5198 18.5589 64.2644 17.7714 64.0047 16.984C63.9815 16.9164 63.992 16.8826 64.049 16.8425C64.733 16.3443 65.417 15.8461 66.0968 15.3458C66.1517 15.3056 66.2045 15.2508 66.2298 15.1895C66.3333 14.9658 66.1686 14.7188 65.9237 14.7188ZM67.3234 30.303C66.8315 30.303 66.4198 30.7147 66.4198 31.2065V37.4786L61.731 30.683C61.5727 30.4465 61.3194 30.303 61.0027 30.303C60.5108 30.303 60.0991 30.7147 60.0991 31.2065V40.3139C60.0991 40.8036 60.5108 41.2174 61.0027 41.2174C61.4925 41.2174 61.9063 40.8036 61.9063 40.3139V34.0734L66.5781 40.8205C66.7365 41.0591 67.0215 41.2174 67.3234 41.2174C67.8131 41.2174 68.2248 40.8036 68.2248 40.3139V31.2065C68.2248 30.7147 67.8131 30.303 67.3234 30.303ZM74.9593 19.6186H72.7004C72.675 19.5405 72.6518 19.473 72.6286 19.4012C72.4238 18.7721 72.219 18.1409 72.0143 17.5096C71.9868 17.4168 71.9425 17.3408 71.8496 17.2985C71.6913 17.2246 71.5182 17.3006 71.4612 17.4759C71.3134 17.9276 71.1677 18.3773 71.022 18.8312C70.9376 19.093 70.851 19.3548 70.7645 19.6186H68.5499C68.5077 19.6186 68.4613 19.6187 68.4233 19.6292C68.3093 19.663 68.2417 19.7411 68.2206 19.8551C68.1974 19.9797 68.2438 20.0789 68.3473 20.1549C68.9363 20.5855 69.5231 21.0141 70.11 21.4384C70.1565 21.4743 70.1692 21.5018 70.148 21.5567C70.0024 21.9894 69.8609 22.4264 69.7195 22.8634C69.6371 23.1168 69.5527 23.3722 69.4725 23.6255C69.4155 23.805 69.5042 23.9739 69.6794 24.0098C69.7807 24.0309 69.863 23.9908 69.9411 23.9338C70.5154 23.5158 71.0875 23.0978 71.6575 22.6798C71.7166 22.6375 71.7525 22.6397 71.8074 22.6819C71.9995 22.8275 72.1979 22.9669 72.39 23.1104C72.7785 23.387 73.1627 23.6741 73.549 23.9506C73.7433 24.09 73.9882 23.9844 74.0071 23.7543C74.0114 23.6994 73.9966 23.6403 73.9797 23.5854C73.7601 22.9099 73.5385 22.2343 73.3147 21.5588C73.2978 21.5018 73.3063 21.4743 73.3548 21.4384C73.9417 21.0141 74.5265 20.5855 75.1092 20.1591C75.1556 20.1211 75.202 20.0746 75.2253 20.0219C75.3118 19.8319 75.1704 19.6186 74.9593 19.6186ZM74.6637 30.208C71.4633 30.208 69.6414 32.013 69.6414 35.7686C69.6414 39.4736 71.4633 41.3124 74.6637 41.3124C77.862 41.3124 79.6839 39.4736 79.6839 35.7686C79.6839 32.013 77.862 30.208 74.6637 30.208ZM80.0027 44.8802C79.7135 44.8802 79.4623 45.0322 79.325 45.2539L77.2308 48.5409L75.1366 45.2539C74.9846 45.0195 74.7503 44.8802 74.4589 44.8802C74.0135 44.8802 73.6546 45.2412 73.6546 45.6845C73.6546 45.8365 73.6947 46.0033 73.7792 46.1131L76.4265 50.0651V53.6287C76.4265 54.072 76.7875 54.433 77.2308 54.433C77.6741 54.433 78.0352 54.072 78.0352 53.6287V50.0651L80.6825 46.1131C80.7669 46.0033 80.807 45.8365 80.807 45.6845C80.807 45.2412 80.446 44.8802 80.0027 44.8802ZM74.6637 39.6637C72.5716 39.6637 71.5435 38.3822 71.5435 35.7686C71.5435 33.1382 72.5716 31.8546 74.6637 31.8546C76.7537 31.8546 77.7839 33.1382 77.7839 35.7686C77.7839 38.3822 76.7537 39.6637 74.6637 39.6637ZM22.8317 35.7686C22.8317 38.3822 21.8015 39.6637 19.7115 39.6637C17.6193 39.6637 16.5912 38.3822 16.5912 35.7686C16.5912 33.1382 17.6193 31.8546 19.7115 31.8546C21.8015 31.8546 22.8317 33.1382 22.8317 35.7686ZM26.4755 50.4261H24.2018L25.3376 47.5149L26.4755 50.4261ZM42.9189 50.4261H40.6452L41.781 47.5149L42.9189 50.4261ZM45.1651 32.0784H47.2551C48.2854 32.0784 48.7139 32.8849 48.7139 33.7399C48.7139 34.5801 48.2854 35.3886 47.3037 35.3886H45.1651V32.0784Z" fill="#E7C520"/>
<path fill-rule="evenodd" clip-rule="evenodd" d="M38.7537 76.235C38.7537 76.6784 38.3926 77.0394 37.9493 77.0394C37.5081 77.0394 37.1471 76.6784 37.1471 76.235V72.9037H33.1909V76.235C33.1909 76.6784 32.832 77.0394 32.3908 77.0394C31.9453 77.0394 31.5864 76.6784 31.5864 76.235V68.3099C31.5864 67.8666 31.9453 67.5077 32.3908 67.5077C32.832 67.5077 33.1909 67.8666 33.1909 68.3099V71.4365H37.1471V68.3099C37.1471 68.0969 37.2317 67.8926 37.3824 67.7419C37.533 67.5913 37.7373 67.5067 37.9504 67.5067C38.1634 67.5067 38.3677 67.5913 38.5184 67.7419C38.669 67.8926 38.7537 68.0969 38.7537 68.3099V76.235ZM42.9843 70.4506C45.3213 70.4506 45.7499 72.2514 45.7499 73.2098C45.7499 73.7186 45.7499 74.3139 44.9054 74.3139H41.4896C41.4896 75.3104 42.1969 75.7664 43.1089 75.7664C43.719 75.7664 44.1454 75.5595 44.4769 75.3378C44.631 75.2407 44.7408 75.1837 44.9223 75.1837C45.2791 75.1837 45.5746 75.475 45.5746 75.836C45.5746 76.0577 45.4585 76.235 45.334 76.3469C45.0996 76.5707 44.3671 77.109 43.1089 77.109C41.1856 77.109 39.995 76.0725 39.995 73.7587C39.995 71.6455 41.1033 70.4506 42.9843 70.4506ZM41.5319 73.0684H44.2721C44.2721 72.3928 43.8836 71.7299 42.9843 71.7299C42.1842 71.7299 41.5994 72.1859 41.5319 73.0684ZM48.2135 71.2845V74.5081C48.2135 75.1415 48.4331 75.7495 49.4591 75.7495C50.4703 75.7495 50.6899 75.1415 50.6899 74.5081V71.2845C50.6899 70.8707 51.0213 70.5371 51.4372 70.5371C51.8531 70.5371 52.1824 70.8707 52.1824 71.2845V74.5081C52.1824 75.8656 51.6694 77.109 49.4591 77.109C47.2298 77.109 46.7168 75.8656 46.7168 74.5081V71.2845C46.7168 70.8707 47.0524 70.5371 47.4662 70.5371C47.8821 70.5371 48.2135 70.8707 48.2135 71.2845ZM54.9902 71.3541C55.252 70.8158 55.9022 70.4696 56.487 70.4696C56.8712 70.4696 57.1921 70.7842 57.1921 71.1747C57.1921 71.5589 56.8712 71.8798 56.487 71.8798C55.5306 71.8798 54.9902 72.4878 54.9902 73.4146V76.292C54.9902 76.7037 54.6609 77.0394 54.2429 77.0394C54.1447 77.0394 54.0475 77.02 53.9569 76.9825C53.8662 76.9449 53.7838 76.8899 53.7144 76.8205C53.645 76.7511 53.59 76.6687 53.5524 76.578C53.5149 76.4874 53.4955 76.3902 53.4955 76.292V71.2845C53.4955 70.8707 53.8291 70.5371 54.2429 70.5371C54.6609 70.5371 54.9902 70.8707 54.9902 71.2845V71.3541ZM60.5509 70.4506C62.8879 70.4506 63.3164 72.2514 63.3164 73.2098C63.3164 73.7186 63.3164 74.3139 62.4741 74.3139H59.0562C59.0562 75.3104 59.7613 75.7664 60.6754 75.7664C61.2855 75.7664 61.712 75.5595 62.0455 75.3378C62.1975 75.2407 62.3094 75.1837 62.4868 75.1837C62.8478 75.1837 63.137 75.475 63.137 75.836C63.137 76.0577 63.0272 76.235 62.9026 76.3469C62.6683 76.5707 61.9315 77.109 60.6754 77.109C58.7501 77.109 57.5637 76.0725 57.5637 73.7587C57.5637 71.6455 58.672 70.4506 60.5509 70.4506ZM59.0963 73.0684H61.8408C61.8408 72.3928 61.4523 71.7299 60.5509 71.7299C59.7465 71.7299 59.1702 72.1859 59.0963 73.0684ZM68.4211 76.748L66.3606 73.9804L65.9173 74.3266V76.3216C65.9173 76.7354 65.5859 77.0394 65.1742 77.0394C64.7435 77.0394 64.4248 76.7354 64.4248 76.3216V67.8012C64.4248 67.3853 64.7435 67.0834 65.1742 67.0834C65.5859 67.0834 65.9173 67.3853 65.9173 67.8012V72.6841L68.4211 70.7187C68.6005 70.5794 68.7399 70.5371 68.9045 70.5371C69.3078 70.5371 69.6244 70.8538 69.6244 71.2549C69.6244 71.4618 69.5294 71.6856 69.3479 71.8249L67.5344 73.2098L69.5716 75.8783C69.6814 76.0281 69.7215 76.1844 69.7215 76.3216C69.7215 76.7248 69.4028 77.0394 69.0016 77.0394C68.7399 77.0394 68.5456 76.9127 68.4211 76.748ZM71.7144 72.3084C71.5751 72.4055 71.4653 72.4477 71.2985 72.4477C70.9396 72.4477 70.6483 72.1564 70.6483 71.7954C70.6483 71.6455 70.7053 71.4766 70.8299 71.3394C71.2162 70.9129 71.9086 70.4506 73.0951 70.4506C74.8114 70.4506 75.8374 71.2971 75.8374 72.7644V76.3047C75.8374 76.7037 75.506 77.0394 75.1028 77.0394C74.7016 77.0394 74.3702 76.7037 74.3702 76.3047C73.9944 76.9021 73.3864 77.109 72.5589 77.109C71.2014 77.109 70.3042 76.2625 70.3042 75.019C70.3042 73.7334 71.3408 73.0684 72.5441 73.0684H74.3554V72.8193C74.3554 72.1986 73.8994 71.7827 73.0951 71.7827C72.4892 71.7827 72.0606 72.0571 71.7144 72.3084ZM74.3554 74.62V74.2295H72.7362C72.1282 74.2295 71.7989 74.5208 71.7989 75.019C71.7989 75.5447 72.1704 75.8656 72.9452 75.8656C73.6799 75.8656 74.3554 75.3927 74.3554 74.62Z" fill="#30A9D4"/>
<path fill-rule="evenodd" clip-rule="evenodd" d="M28.9517 76.4014L27.1066 74.552H27.1108C27.8898 73.6822 28.3669 72.5317 28.3669 71.2756C28.3669 68.5649 26.1629 66.3651 23.4523 66.3651C20.7458 66.3651 18.5439 68.5649 18.5439 71.2756C18.5439 73.9862 20.7458 76.1881 23.4523 76.1881C24.2904 76.1881 25.0715 75.9728 25.7618 75.6055L27.7547 77.5941C27.8327 77.6738 27.9258 77.7372 28.0286 77.7804C28.1313 77.8236 28.2417 77.8459 28.3532 77.8459C28.4647 77.8459 28.5751 77.8236 28.6779 77.7804C28.7806 77.7372 28.8738 77.6738 28.9517 77.5941C29.2811 77.2648 29.2811 76.7286 28.9517 76.4014ZM19.9246 71.2756C19.9246 69.3291 21.5079 67.7458 23.4523 67.7458C24.1658 67.7458 24.8287 67.959 25.3818 68.3221L23.3531 71.5775L22.5192 70.4755C22.4579 70.3945 22.3788 70.3288 22.288 70.2834C22.1972 70.238 22.0971 70.2142 21.9956 70.2137C21.8478 70.2137 21.7127 70.2622 21.5945 70.3467C21.3074 70.5662 21.2483 70.9821 21.4699 71.2671L22.8802 73.1312C23.0068 73.298 23.1989 73.393 23.4058 73.393H23.4333C23.6507 73.3867 23.8492 73.2685 23.9611 73.0827L26.3487 69.2573C26.7477 69.8316 26.9842 70.524 26.9842 71.2756C26.9842 73.222 25.4008 74.8011 23.4523 74.8011C21.5079 74.8011 19.9246 73.222 19.9246 71.2756Z" fill="#FF7A04"/>
</g>
<defs>
<clipPath id="clip0_5319_2292">
<rect width="95" height="95" fill="white"/>
</clipPath>
</defs>
</svg>
