<svg width="38" height="24" viewBox="0 0 38 24" fill="none" xmlns="http://www.w3.org/2000/svg">
<path d="M37.7981 0H0V9.59182H37.7981V0Z" fill="black"/>
<path d="M37.7981 14.3879H0V23.9798H37.7981V14.3879Z" fill="black"/>
<path d="M6.79668 7.30273V5.00856C6.79668 4.66987 6.64623 4.42919 6.25509 4.42919C5.91662 4.42919 5.63837 4.65498 5.50281 4.85055V7.30273H4.54007V5.00856C4.54007 4.66987 4.38962 4.42919 3.99848 4.42919C3.66734 4.42919 3.3891 4.65498 3.2462 4.85055V7.30273H2.29102V3.66957H3.2462V4.13583C3.40421 3.92537 3.87802 3.57935 4.43473 3.57935C4.96877 3.57935 5.3148 3.82736 5.44258 4.23362C5.65326 3.91026 6.13463 3.57935 6.69134 3.57935C7.36095 3.57935 7.75964 3.93271 7.75964 4.67743V7.30273H6.79668Z" fill="white"/>
<path d="M8.61694 2.70638C8.61694 2.39057 8.87274 2.14233 9.18121 2.14233C9.49701 2.14233 9.75281 2.39057 9.75281 2.70638C9.75281 3.0224 9.49701 3.27797 9.18121 3.27797C8.87274 3.27797 8.61694 3.0224 8.61694 2.70638ZM8.70717 3.66934H9.66258V7.30249H8.70717V3.66934Z" fill="white"/>
<path d="M15.116 7.30273V5.00856C15.116 4.66987 14.9656 4.42919 14.5744 4.42919C14.236 4.42919 13.9577 4.65498 13.8224 4.85055V7.30273H12.8594V5.00856C12.8594 4.66987 12.709 4.42919 12.3178 4.42919C11.9869 4.42919 11.7084 4.65498 11.5655 4.85055V7.30273H10.6104V3.66957H11.5655V4.13583C11.7235 3.92537 12.1976 3.57935 12.7541 3.57935C13.2881 3.57935 13.6341 3.82736 13.7621 4.23362C13.9726 3.91026 14.454 3.57935 15.0107 3.57935C15.6803 3.57935 16.079 3.93271 16.079 4.67743V7.30273H15.116Z" fill="white"/>
<path d="M16.7928 5.48189C16.7928 4.42892 17.5751 3.57886 18.6734 3.57886C19.7642 3.57886 20.4936 4.39136 20.4936 5.57234V5.79791H17.7934C17.8609 6.24172 18.2221 6.61042 18.839 6.61042C19.1475 6.61042 19.5684 6.48241 19.8017 6.25683C19.9733 6.50952 20.0589 6.63575 20.2307 6.88866C19.8697 7.21957 19.2981 7.3927 18.7339 7.3927C17.6278 7.3927 16.7928 6.64797 16.7928 5.48189ZM18.6734 4.36114C18.0792 4.36114 17.8234 4.77495 17.7858 5.13586H19.5762C19.5462 4.78984 19.3055 4.36114 18.6734 4.36114Z" fill="white"/>
<path d="M4.78814 21.6908V21.2246C4.50234 21.5855 4.1112 21.7811 3.66739 21.7811C2.7571 21.7811 2.0575 21.089 2.0575 19.8705C2.0575 18.6895 2.74199 17.9675 3.66739 17.9675C4.09609 17.9675 4.50234 18.1479 4.78814 18.5239V16.6736H5.7511V21.6908H4.78814ZM4.78814 20.5174V19.2311C4.63035 18.9904 4.2841 18.8173 3.9683 18.8173C3.41915 18.8173 3.0429 19.2462 3.0429 19.8705C3.0429 20.5023 3.41915 20.931 3.9683 20.931C4.2841 20.931 4.63035 20.7581 4.78814 20.5174Z" fill="white"/>
<path d="M6.60852 17.0948C6.60852 16.7788 6.86432 16.5305 7.17256 16.5305C7.48859 16.5305 7.74438 16.7788 7.74438 17.0948C7.74438 17.4108 7.48859 17.6666 7.17256 17.6666C6.86432 17.6666 6.60852 17.4108 6.60852 17.0948ZM6.69875 18.0575H7.65393V21.6909H6.69875V18.0575Z" fill="white"/>
<path d="M8.52605 22.6237C8.69762 22.3499 8.78341 22.213 8.95497 21.9392C9.24811 22.2552 9.63947 22.383 10.0906 22.383C10.5495 22.383 11.0987 22.1872 11.0987 21.4502V21.0966C10.8129 21.4578 10.4217 21.6607 9.97038 21.6607C9.06765 21.6607 8.36804 21.0289 8.36804 19.8179C8.36804 18.6294 9.05254 17.9675 9.97038 17.9675C10.4066 17.9675 10.8053 18.148 11.0987 18.524V18.0575H12.0539V21.4502C12.0539 22.8268 10.986 23.1652 10.0906 23.1652C9.4739 23.1652 8.98498 23.0223 8.52605 22.6237ZM11.0987 20.4044V19.2236C10.9331 18.9905 10.5873 18.8174 10.2789 18.8174C9.7297 18.8174 9.35345 19.1936 9.35345 19.8179C9.35345 20.4422 9.7297 20.8182 10.2789 20.8182C10.5873 20.8182 10.9331 20.6377 11.0987 20.4044Z" fill="white"/>
<path d="M12.9119 17.0948C12.9119 16.7788 13.1677 16.5305 13.4761 16.5305C13.7922 16.5305 14.0477 16.7788 14.0477 17.0948C14.0477 17.4108 13.7922 17.6666 13.4761 17.6666C13.1677 17.6666 12.9119 17.4108 12.9119 17.0948ZM13.0021 18.0575H13.9573V21.6909H13.0021V18.0575Z" fill="white"/>
<path d="M15.1007 20.7807V18.8926H14.4989V18.0577H15.1007V17.0647H16.0561V18.0577H16.7933V18.8926H16.0561V20.525C16.0561 20.7581 16.1764 20.9312 16.387 20.9312C16.5299 20.9312 16.6655 20.8785 16.718 20.8183C16.7993 21.1101 16.84 21.2561 16.9211 21.5479C16.7782 21.6759 16.5224 21.781 16.1239 21.781C15.4543 21.781 15.1007 21.4352 15.1007 20.7807Z" fill="white"/>
<path d="M19.6286 21.6911V21.3073C19.3806 21.6082 18.9517 21.7814 18.4777 21.7814C17.8985 21.7814 17.2216 21.3902 17.2216 20.5777C17.2216 19.7203 17.8985 19.4043 18.4777 19.4043C18.9666 19.4043 19.3879 19.5623 19.6286 19.8481V19.3892C19.6286 19.0207 19.3126 18.78 18.8312 18.78C18.4476 18.78 18.0867 18.9305 17.7858 19.2087C17.6351 18.9409 17.56 18.8069 17.4096 18.5394C17.8534 18.1407 18.425 17.9675 18.9968 17.9675C19.8318 17.9675 20.5916 18.2984 20.5916 19.3441V21.6911H19.6286ZM19.6286 20.8184V20.367C19.4706 20.1566 19.1701 20.0437 18.8617 20.0437C18.4854 20.0437 18.177 20.2468 18.177 20.5928C18.177 20.9389 18.4852 21.1344 18.8617 21.1344C19.1699 21.1344 19.4706 21.0291 19.6286 20.8184Z" fill="white"/>
<path d="M22.4878 16.6736H21.5323V21.6908H22.4878V16.6736Z" fill="white"/>
</svg>
